<svg xmlns="http://www.w3.org/2000/svg" width="1024" height="1024" viewBox="0 0 1024 1024" version="1.1">
	<path d="M 0 512.001 L 0 1024.002 512.250 1023.751 L 1024.500 1023.500 1024.751 511.750 L 1025.002 0 512.501 0 L 0 0 0 512.001 M 0.496 512.500 C 0.496 794.100, 0.610 909.151, 0.750 768.168 C 0.890 627.186, 0.890 396.786, 0.750 256.168 C 0.610 115.551, 0.496 230.900, 0.496 512.500 M 273.481 137.438 C 263.146 139.499, 252.629 145.295, 244.597 153.356 C 236.355 161.630, 231.790 169.590, 228.975 180.596 C 220.974 211.882, 240.339 244, 271.745 251.531 C 280.886 253.722, 295.803 253.124, 304.277 250.226 C 322.539 243.981, 337.663 227.773, 342.415 209.356 C 344.415 201.603, 344.453 188.159, 342.496 180.647 C 334.424 149.654, 304.906 131.174, 273.481 137.438 M 238 619.500 L 238 888 286.500 888 L 335 888 335 619.500 L 335 351 286.500 351 L 238 351 238 619.500 M 397.299 352.750 C 397.592 353.712, 400.159 359.675, 403.003 366 C 414.612 391.816, 416.439 395.848, 420.139 403.809 C 422.262 408.379, 424 412.299, 424 412.521 C 424 412.742, 426.025 417.257, 428.500 422.554 C 430.975 427.851, 433 432.335, 433 432.519 C 433 432.703, 434.626 436.374, 436.614 440.677 C 438.601 444.980, 444.177 457.275, 449.005 468 C 453.833 478.725, 459.182 490.549, 460.891 494.275 C 462.601 498.001, 464 501.229, 464 501.448 C 464 501.667, 466.250 506.640, 469 512.500 C 471.750 518.360, 474 523.318, 474 523.517 C 474 523.717, 476.025 528.185, 478.500 533.446 C 480.975 538.708, 483 543.171, 483 543.365 C 483 543.559, 487.766 554.244, 493.591 567.109 C 499.415 579.974, 505.083 592.525, 506.186 595 C 507.288 597.475, 511.040 605.800, 514.523 613.500 C 518.005 621.200, 524.920 636.500, 529.888 647.500 L 538.920 667.500 589.460 667.759 C 617.688 667.904, 640 667.634, 640 667.147 C 640 666.237, 636.226 657.597, 630.418 645.212 C 628.538 641.203, 627 637.761, 627 637.561 C 627 637.362, 625.178 633.216, 622.952 628.349 C 618.083 617.705, 618.369 618.338, 611.940 604 C 609.104 597.675, 605.743 590.250, 604.471 587.500 C 603.198 584.750, 598.038 573.275, 593.002 562 C 587.967 550.725, 582.307 538.220, 580.424 534.212 C 578.541 530.203, 577 526.733, 577 526.500 C 577 526.267, 575.463 522.797, 573.584 518.788 C 568.882 508.756, 561.316 491.993, 554.496 476.500 C 551.349 469.350, 547.025 459.761, 544.887 455.191 C 542.749 450.621, 541 446.710, 541 446.500 C 541 446.290, 539.200 442.240, 537 437.500 C 534.800 432.760, 533 428.723, 533 428.530 C 533 428.337, 531.468 424.876, 529.596 420.839 C 527.724 416.803, 521.924 404.050, 516.707 392.500 C 511.490 380.950, 506.102 369.025, 504.733 366 C 503.363 362.975, 501.313 358.363, 500.178 355.750 L 498.112 351 447.440 351 C 399.644 351, 396.797 351.099, 397.299 352.750 M 702 509.500 L 702 668 750.500 668 L 799 668 799 509.500 L 799 351 750.500 351 L 702 351 702 509.500" stroke="none" fill="black" fill-rule="evenodd"/>
</svg>